<svg width="1728" height="1117" viewBox="0 0 1728 1117" fill="none" xmlns="http://www.w3.org/2000/svg">
<g clip-path="url(#clip0_50_2308)">
<rect width="1728" height="1117" fill="black"/>
<path d="M788.382 687.951C789.905 689.243 789.905 689.243 790 693.845C789.969 695.31 789.937 696.775 789.905 698.285C775.695 702.465 761.363 705.87 746.814 709.079C737.058 711.261 727.509 713.72 717.961 716.48C712.079 718.128 706.134 719.452 700.129 720.73C688.491 723.269 676.931 725.989 665.385 728.811C654.958 731.359 644.511 733.844 634.058 736.313C621.469 739.292 608.903 742.327 596.358 745.436C594.877 745.802 593.396 746.169 591.871 746.546C583.913 748.519 575.964 750.516 568.023 752.536C565.529 753.165 565.529 753.165 562.984 753.808C559.794 754.613 556.608 755.425 553.424 756.245C551.988 756.606 550.552 756.968 549.072 757.34C547.813 757.661 546.554 757.982 545.257 758.313C541.616 759 541.616 759 534 759C534 754.311 534 749.622 534 744.79C535.335 744.522 536.67 744.254 538.046 743.978C552.317 741.038 566.403 737.691 580.489 734.17C596.359 730.207 612.288 726.43 628.226 722.668C636.17 720.791 644.111 718.903 652.051 717.016C655.219 716.265 658.386 715.513 661.554 714.761C667.961 713.24 674.367 711.715 680.773 710.189C683.988 709.424 687.203 708.658 690.418 707.893C691.998 707.517 693.579 707.14 695.207 706.753C702.724 704.967 710.245 703.199 717.783 701.479C719.168 701.163 720.552 700.847 721.979 700.521C724.717 699.897 727.455 699.274 730.193 698.653C737.58 696.956 744.895 695.136 752.187 693.163C753.764 692.74 755.342 692.316 756.967 691.879C759.995 691.058 763.016 690.222 766.03 689.366C774.21 687.149 779.993 686.103 788.382 687.951Z" fill="#D9D9D9"/>
<path d="M1063.52 873.307C1065.69 873.004 1067.87 872.707 1069.95 872.432C1078.45 871.313 1086.5 875.073 1091.59 881.973C1095.4 887.153 1100.95 890.798 1107.21 892.25L1130.7 897.689C1140.17 899.882 1149.92 900.562 1159.61 899.717C1185.4 897.465 1220.19 894.5 1223.5 894.5C1226.17 894.5 1232.7 888.853 1238.49 883.215C1243.4 878.424 1249.91 875.5 1256.77 875.5C1260.54 875.5 1264.26 876.368 1267.64 878.036L1276.63 882.475C1292.27 890.191 1304.32 903.654 1310.25 920.047L1324 958L1335.86 1005.06C1338.25 1014.53 1338.17 1024.45 1335.63 1033.87C1328.8 1059.21 1305.58 1076.62 1279.34 1076.09L1005.5 1070.5L974.124 1066.24C968.117 1065.42 962.368 1063.28 957.295 1059.96L938.072 1047.38C930.492 1042.42 928.184 1032.36 932.845 1024.59L934.128 1022.45C937.297 1017.17 943.618 1014.68 949.54 1016.37C955.882 1018.18 962.61 1015.19 965.508 1009.26L999.918 938.911C1003.63 931.33 1008.22 924.214 1013.6 917.71L1038.83 887.198C1045.06 879.664 1053.84 874.659 1063.52 873.307Z" fill="#EE6D3D"/>
<path d="M677.216 842C680.507 841.942 683.799 841.906 687.091 841.875C688.028 841.858 688.965 841.841 689.931 841.824C690.827 841.818 691.722 841.811 692.645 841.805C693.473 841.794 694.3 841.784 695.153 841.773C697.216 842 697.216 842 699.216 844C699.216 844.99 699.216 845.98 699.216 847C700.382 846.989 701.549 846.978 702.751 846.966C713.742 846.865 724.733 846.79 735.725 846.741C741.376 846.715 747.027 846.679 752.677 846.623C758.13 846.568 763.583 846.539 769.036 846.526C771.117 846.516 773.198 846.498 775.279 846.471C778.193 846.435 781.105 846.43 784.019 846.432C784.88 846.414 785.741 846.396 786.628 846.378C790.914 846.415 792.704 846.62 796.247 849.249C798.247 852.044 798.852 853.216 798.912 856.579C798.939 857.463 798.967 858.346 798.995 859.257C799 860.208 799.004 861.16 799.009 862.141C799.032 863.147 799.056 864.153 799.08 865.19C799.149 868.46 799.183 871.729 799.216 875C799.257 877.204 799.299 879.408 799.343 881.611C799.445 887.194 799.491 892.776 799.511 898.36C799.523 900.656 799.543 902.952 799.572 905.248C799.615 908.618 799.631 911.988 799.642 915.359C799.659 916.387 799.677 917.415 799.695 918.474C799.69 919.894 799.69 919.894 799.686 921.343C799.692 922.173 799.697 923.003 799.704 923.858C799.216 926 799.216 926 797.39 927.748C794.696 929.299 792.283 929.651 789.216 930C789.287 930.761 789.359 931.522 789.432 932.305C790.182 940.992 790.335 949.597 790.278 958.312C790.258 962.829 790.237 967.346 790.216 972C800.446 972 810.676 972 821.216 972C821.876 974.31 822.536 976.62 823.216 979C823.546 979.99 823.876 980.98 824.216 982C825.515 982.144 826.815 982.289 828.153 982.438C832.091 982.875 832.091 982.875 833.216 984C835.926 984.386 838.619 984.714 841.341 985C842.143 985.087 842.945 985.174 843.772 985.263C851.242 986.049 858.717 986.58 866.216 987C866.164 988.412 866.164 988.412 866.11 989.852C866.083 991.097 866.056 992.342 866.028 993.625C865.976 995.47 865.976 995.47 865.923 997.352C866.242 1001.32 867.387 1003.51 869.216 1007C869.77 1010.22 869.77 1010.22 870.091 1013.5C870.895 1019.33 871.805 1022.1 876.216 1026C877.061 1026.45 877.907 1026.91 878.778 1027.38C881.481 1029.18 881.84 1030.05 883.091 1032.94C884.748 1036.49 886.406 1038.51 890.067 1040.26C896.019 1042.31 902.186 1043 908.454 1043.09C917.882 1043.26 923.259 1044.3 930.216 1051C932.175 1052.49 934.155 1053.94 936.153 1055.38C937.07 1056.04 937.986 1056.71 938.931 1057.4C941.105 1059.01 941.105 1059.01 943.216 1060C943.216 1060.66 943.216 1061.32 943.216 1062C894.046 1062 844.876 1062 794.216 1062C797.409 1059.61 799.753 1058.17 803.317 1056.61C804.349 1056.15 805.38 1055.7 806.443 1055.23C807.564 1054.74 808.686 1054.25 809.841 1053.75C811.634 1052.96 813.428 1052.17 815.222 1051.38C817.164 1050.53 819.107 1049.68 821.051 1048.83C825.477 1046.89 829.897 1044.93 834.317 1042.98C840.225 1040.37 846.134 1037.76 852.044 1035.15C852.666 1034.88 853.288 1034.6 853.929 1034.32C858.013 1032.52 862.111 1030.75 866.216 1029C866.351 1027.23 866.448 1025.46 866.528 1023.69C866.586 1022.7 866.644 1021.72 866.704 1020.7C866.502 1017.84 866.502 1017.84 864.107 1016.41C860.83 1014.81 858.073 1014.27 854.466 1013.75C853.82 1013.66 853.173 1013.56 852.508 1013.46C851.127 1013.26 849.746 1013.06 848.364 1012.87C844.729 1012.35 841.1 1011.81 837.47 1011.26C836.751 1011.15 836.033 1011.05 835.293 1010.94C829.547 1010.07 823.849 1009.03 818.153 1007.88C810.992 1006.44 803.841 1005.38 796.591 1004.5C789.149 1003.59 781.807 1002.47 774.466 1000.94C773.277 1000.69 773.277 1000.69 772.065 1000.45C768.6 999.691 766.199 998.989 763.216 997C760.907 996.768 758.593 996.588 756.278 996.438C747.538 995.613 742.719 991.661 736.216 986C732.391 984.088 727.219 984.797 722.956 984.834C717.08 984.675 717.08 984.675 714.527 982.681C711.216 978.84 711.216 978.84 711.216 976C712.091 975.99 712.965 975.979 713.867 975.969C722.093 975.871 730.319 975.768 738.545 975.661C742.774 975.605 747.004 975.552 751.233 975.503C755.312 975.455 759.39 975.403 763.468 975.347C765.028 975.327 766.587 975.308 768.146 975.291C770.323 975.267 772.5 975.237 774.676 975.205C775.918 975.19 777.159 975.174 778.438 975.158C781.123 975.314 781.123 975.314 782.216 974C782.308 972.649 782.333 971.293 782.329 969.939C782.329 969.078 782.329 968.218 782.329 967.331C782.321 965.928 782.321 965.928 782.313 964.496C782.312 963.543 782.311 962.59 782.309 961.608C782.304 958.551 782.291 955.494 782.278 952.438C782.273 950.37 782.269 948.303 782.265 946.236C782.254 941.158 782.236 936.079 782.216 931C781.051 931.007 779.887 931.013 778.688 931.02C767.711 931.081 756.735 931.126 745.758 931.155C740.115 931.171 734.472 931.192 728.83 931.226C723.383 931.259 717.937 931.277 712.49 931.285C710.413 931.29 708.336 931.301 706.259 931.317C703.348 931.339 700.437 931.342 697.526 931.341C696.24 931.357 696.24 931.357 694.928 931.373C689.872 931.347 686.693 930.573 682.216 928C666.438 926.023 646.331 928.207 630.739 931.527C627.464 932.141 624.277 932.22 620.946 932.316C619.925 932.348 619.925 932.348 618.883 932.379C616.723 932.444 614.563 932.504 612.403 932.562C610.933 932.606 609.462 932.649 607.991 932.693C604.399 932.8 600.808 932.901 597.216 933C596.741 934.114 596.267 935.227 595.778 936.375C594.963 938.267 594.137 940.157 593.216 942C604.209 940.605 615.143 939.085 626.028 937C635.341 935.222 644.672 933.998 654.094 932.951C655.096 932.84 656.098 932.728 657.13 932.613C658.016 932.518 658.903 932.423 659.816 932.325C662.015 932.027 664.068 931.543 666.216 931C668.504 930.832 670.797 930.734 673.091 930.688C674.284 930.65 675.478 930.613 676.708 930.574C680.881 931.081 683.401 931.925 686.216 935C688.759 938.951 690.826 943.102 692.903 947.312C693.512 948.519 694.122 949.725 694.732 950.93C700.059 961.49 705.182 972.154 710.201 982.863C711.179 984.923 712.188 986.964 713.216 989C714.518 989.026 715.82 989.052 717.161 989.078C718.888 989.134 720.614 989.192 722.341 989.25C723.197 989.264 724.053 989.278 724.935 989.293C730.472 989.506 733.851 990.274 738.216 994C738.876 994.99 739.536 995.98 740.216 997C737.815 998.2 736.322 998.115 733.645 998.098C732.75 998.094 731.854 998.091 730.931 998.088C729.993 998.08 729.056 998.071 728.091 998.062C727.146 998.058 726.201 998.053 725.227 998.049C722.89 998.037 720.553 998.021 718.216 998C718.433 998.616 718.65 999.233 718.874 999.868C719.153 1000.68 719.432 1001.49 719.72 1002.32C719.999 1003.12 720.278 1003.92 720.566 1004.75C721.385 1007.59 721.413 1009.29 720.216 1012C715.449 1016.21 709.389 1017.33 703.403 1019.06C702.752 1019.25 702.101 1019.44 701.43 1019.64C683.076 1024.96 664.321 1028.67 645.609 1032.48C643.144 1032.98 640.679 1033.49 638.216 1034C637.361 1034.18 636.506 1034.35 635.625 1034.54C634.4 1034.8 634.4 1034.8 633.149 1035.07C632.416 1035.22 631.683 1035.38 630.928 1035.54C629.197 1035.85 629.197 1035.85 628.216 1037C625.53 1037.52 622.852 1037.99 620.153 1038.44C615.686 1039.17 611.272 1039.95 606.884 1041.07C603.026 1042.05 600.168 1042.51 596.216 1042C588.488 1037.36 585.971 1029.11 582.938 1021C580.275 1014.03 577.286 1007.24 574.216 1000.44C570.831 992.916 567.505 985.382 564.359 977.757C563.327 975.268 562.269 972.792 561.196 970.32C560.599 968.922 560.001 967.523 559.403 966.125C559.092 965.419 558.781 964.712 558.46 963.984C556.73 959.892 555.476 956.515 556.216 952C559.314 947.992 562.04 947.291 566.95 946.516C568.246 946.303 569.541 946.09 570.876 945.871C572.239 945.664 573.602 945.457 574.966 945.25C576.345 945.029 577.724 944.806 579.102 944.582C582.472 944.04 585.842 943.513 589.216 943C589.216 939.37 589.216 935.74 589.216 932C588.329 932.103 587.442 932.206 586.528 932.312C583.216 932 583.216 932 580.558 929.915C577.685 926.339 577.539 924.606 577.423 920.055C577.388 918.976 577.388 918.976 577.352 917.875C577.278 915.25 577.247 912.626 577.216 910C577.173 907.743 577.131 905.485 577.088 903.228C576.983 896.852 576.94 890.478 576.921 884.102C576.906 880.752 576.875 877.402 576.835 874.052C576.803 870.829 576.799 867.606 576.79 864.383C576.772 863.183 576.755 861.983 576.737 860.747C576.74 859.641 576.743 858.535 576.746 857.395C576.737 855.936 576.737 855.936 576.728 854.448C577.216 852 577.216 852 579.062 850.19C581.957 848.591 584.215 848.566 587.513 848.488C588.718 848.453 589.923 848.417 591.165 848.381C593.046 848.347 593.046 848.347 594.966 848.312C596.235 848.278 597.505 848.244 598.813 848.209C601.947 848.127 605.081 848.057 608.216 848C608.876 846.68 609.536 845.36 610.216 844C620.776 844 631.336 844 642.216 844C642.711 845.485 642.711 845.485 643.216 847C653.776 847 664.336 847 675.216 847C675.876 845.35 676.536 843.7 677.216 842Z" fill="#D9D9D9"/>
<path d="M1375.72 878.796C1411.6 877.149 1411.6 877.149 1425.26 887.611C1427.18 889.041 1427.18 889.041 1429.28 890.062C1431.5 891.212 1433.34 892.343 1435.22 894C1436.11 897.18 1436.4 899.142 1436.4 902.34C1436.43 903.163 1436.46 903.986 1436.49 904.834C1436.58 907.536 1436.62 910.235 1436.65 912.938C1436.71 914.809 1436.76 916.679 1436.82 918.55C1436.94 922.42 1437.03 926.288 1437.1 930.159C1437.22 936.664 1437.42 943.166 1437.61 949.669C1437.86 957.779 1438.03 965.888 1438.22 974C1449.44 974.33 1460.66 974.66 1472.22 975C1475.6 985.154 1475.6 985.154 1475.9 989.125C1476.01 990.37 1476.01 990.37 1476.11 991.641C1476.22 994 1476.22 994 1476.03 997.875C1475.91 1001.03 1475.91 1001.03 1477.87 1003.01C1485.87 1009.8 1496.53 1012.17 1506.62 1013.96C1508.59 1014.31 1510.55 1014.69 1512.51 1015.07C1528.63 1018.07 1544.66 1018.19 1561 1018.19C1564.34 1018.19 1567.69 1018.21 1571.03 1018.22C1586.73 1018.27 1586.73 1018.27 1602.22 1016C1602.99 1015.84 1603.76 1015.68 1604.56 1015.51C1618.58 1013.04 1618.58 1013.04 1630.22 1006C1630.28 1003.67 1630.28 1001.33 1630.22 999C1622.68 995.089 1615.39 991.397 1607.22 989C1607.02 984.138 1607.58 980.559 1609.22 976C1635.29 973.997 1635.29 973.997 1642 979.224C1644.02 981.159 1645.9 983.17 1647.71 985.301C1650.51 988.467 1653.72 991.219 1656.84 994.063C1658.11 995.25 1659.37 996.44 1660.63 997.633C1672.83 1009.55 1672.83 1009.55 1686.22 1020C1686.22 1020.66 1686.22 1021.32 1686.22 1022C1686.81 1022.27 1687.4 1022.54 1688 1022.81C1690.24 1024.01 1691.78 1025.27 1693.61 1027.01C1694.23 1027.6 1694.85 1028.19 1695.49 1028.8C1696.14 1029.42 1696.8 1030.05 1697.47 1030.69C1698.82 1031.97 1700.17 1033.25 1701.53 1034.53C1702.49 1035.44 1702.49 1035.44 1703.48 1036.37C1706.01 1038.74 1708.61 1041.02 1711.25 1043.27C1712.86 1044.69 1714.43 1046.14 1716 1047.6C1716.49 1048.06 1716.98 1048.52 1717.48 1048.99C1718.89 1050.31 1720.3 1051.63 1721.7 1052.96C1724.03 1054.85 1725.29 1055.63 1728.22 1056C1727.89 1058.31 1727.56 1060.62 1727.22 1063C1675.34 1063.08 1623.46 1062.96 1571.58 1062.78C1570.77 1062.78 1569.97 1062.78 1569.14 1062.77C1548.38 1062.7 1527.61 1062.63 1506.85 1062.55C1494.8 1062.51 1482.75 1062.47 1470.69 1062.43C1469.83 1062.42 1468.98 1062.42 1468.09 1062.42C1463.78 1062.4 1459.46 1062.39 1455.15 1062.37C1419.84 1062.25 1384.53 1062.13 1349.22 1062C1351.18 1056.92 1353.84 1052.49 1356.66 1047.84C1361 1039.93 1360.3 1028.97 1358.42 1020.33C1355.97 1013.02 1352.39 1006.48 1348.53 999.835C1343.53 991.196 1339.72 983.084 1339.22 973C1341.86 973 1344.5 973 1347.22 973C1347.19 972.231 1347.17 971.462 1347.14 970.669C1346.9 963.29 1346.66 955.911 1346.43 948.531C1346.31 944.741 1346.19 940.95 1346.07 937.16C1345.58 922.073 1345.13 906.994 1345.09 891.898C1345.09 890.8 1345.08 889.702 1345.08 888.57C1345.08 887.58 1345.08 886.589 1345.08 885.568C1345.08 884.704 1345.09 883.841 1345.09 882.951C1345.22 881 1345.22 881 1346.22 880C1347.63 879.84 1349.06 879.748 1350.48 879.684C1351.42 879.641 1352.35 879.598 1353.31 879.554C1357.91 879.384 1362.51 879.247 1367.11 879.126C1369.98 879.045 1372.85 878.93 1375.72 878.796Z" fill="#D9D9D9"/>
<path d="M682.216 854C683.487 857.543 684.462 860.686 684.595 864.453C684.629 865.237 684.663 866.021 684.698 866.828C684.738 868.027 684.738 868.027 684.778 869.25C684.734 874.795 684.734 874.795 686.216 880C687.536 879.67 688.856 879.34 690.216 879C690.876 870.75 691.536 862.5 692.216 854C705.107 853.977 717.997 853.959 730.888 853.948C736.873 853.943 742.858 853.936 748.843 853.924C754.614 853.914 760.384 853.908 766.155 853.905C768.362 853.903 770.569 853.9 772.776 853.894C775.855 853.887 778.935 853.886 782.014 853.886C782.937 853.883 783.859 853.879 784.809 853.875C791.102 853.886 791.102 853.886 792.216 855C792.326 857.075 792.365 859.154 792.377 861.232C792.382 861.883 792.387 862.533 792.392 863.203C792.407 865.363 792.413 867.523 792.419 869.684C792.425 871.179 792.43 872.675 792.436 874.171C792.447 877.311 792.453 880.451 792.456 883.591C792.462 887.621 792.486 891.65 792.514 895.68C792.533 898.771 792.538 901.862 792.539 904.953C792.542 906.439 792.55 907.925 792.564 909.411C792.581 911.487 792.579 913.562 792.572 915.638C792.578 917.413 792.578 917.413 792.583 919.223C792.462 920.139 792.341 921.056 792.216 922C788.318 924.599 785.025 924.307 780.5 924.319C779.601 924.329 778.701 924.339 777.773 924.349C774.752 924.38 771.73 924.397 768.708 924.414C766.554 924.433 764.4 924.452 762.246 924.473C756.408 924.525 750.571 924.564 744.734 924.601C739.886 924.633 735.037 924.672 730.188 924.711C681.531 925.097 632.874 925.098 584.216 925C584.216 902.23 584.216 879.46 584.216 856C616.923 854.711 649.491 853.65 682.216 854Z" fill="#080808"/>
<path d="M962.215 408C1042.41 408 1122.6 408 1205.22 408C1205.77 427.534 1206.32 447.038 1206.6 466.573C1206.9 486.754 1207.51 506.893 1208.48 527.052C1209.09 539.654 1209.49 552.248 1209.77 564.861C1210.11 580.329 1210.78 595.775 1211.56 611.227C1211.62 612.578 1211.62 612.578 1211.69 613.956C1211.77 615.594 1211.85 617.232 1211.94 618.869C1212.38 628.261 1212.22 637.564 1212.22 647C1132.03 647 1051.84 647 969.215 647C967.895 625.873 966.766 604.833 966.153 583.688C966.036 579.736 965.918 575.784 965.796 571.833C965.721 569.413 965.65 566.993 965.582 564.573C965.43 559.587 965.214 554.647 964.704 549.684C964.07 543.2 964.016 536.715 963.955 530.206C963.934 527.922 963.907 525.638 963.878 523.354C963.819 518.486 963.767 513.618 963.715 508.75C963.647 502.37 963.575 495.99 963.497 489.609C963.487 488.828 963.478 488.046 963.468 487.24C963.359 478.404 963.15 469.591 962.684 460.766C961.984 443.19 962.215 425.589 962.215 408ZM976.215 420C976.186 445.129 976.186 445.129 976.583 470.242C976.622 471.903 976.662 473.564 976.701 475.225C976.804 479.555 976.913 483.885 977.023 488.215C977.091 490.917 977.158 493.619 977.225 496.321C977.824 520.535 978.581 544.733 979.657 568.931C979.697 569.829 979.737 570.727 979.778 571.652C979.817 572.524 979.855 573.396 979.895 574.294C980.357 584.899 980.632 595.509 980.874 606.121C981.114 616.109 981.66 626.008 982.215 636C1053.5 636 1124.78 636 1198.22 636C1198.24 623.47 1198.24 623.47 1198.03 610.949C1198.01 610.199 1197.99 609.449 1197.97 608.675C1197.93 607.122 1197.89 605.569 1197.84 604.016C1197.78 601.672 1197.72 599.327 1197.66 596.982C1197.62 595.451 1197.57 593.919 1197.53 592.387C1197.51 591.366 1197.51 591.366 1197.48 590.325C1197.37 586.613 1197.12 582.955 1196.73 579.262C1195.88 570.342 1195.88 561.374 1195.72 552.422C1195.67 550.372 1195.63 548.322 1195.59 546.273C1195.48 540.856 1195.38 535.439 1195.28 530.021C1195.18 524.725 1195.07 519.429 1194.97 514.133C1194.35 482.756 1193.79 451.378 1193.22 420C1121.61 420 1050 420 976.215 420Z" fill="#D9D9D9"/>
<path d="M1239.22 439C1335.91 439 1432.6 439 1532.22 439C1533.21 469.03 1534.2 499.06 1535.22 530C1536.67 573.529 1536.67 573.529 1539.22 617C1539.22 626.57 1539.22 636.14 1539.22 646C1442.53 646 1345.84 646 1246.22 646C1245.01 623.609 1243.87 601.3 1243.27 578.898C1243.1 572.559 1242.91 566.221 1242.72 559.883C1242.7 559.192 1242.68 558.501 1242.66 557.789C1242.29 545.436 1241.77 533.093 1241.15 520.75C1240.5 507.627 1239.95 494.509 1239.59 481.375C1239.56 480.313 1239.56 480.313 1239.53 479.23C1239.15 465.814 1239.22 452.43 1239.22 439ZM1253.22 450C1253.2 463.607 1253.2 463.607 1253.4 477.207C1253.42 478.065 1253.44 478.922 1253.46 479.806C1253.5 481.584 1253.54 483.362 1253.59 485.14C1253.65 487.827 1253.71 490.514 1253.77 493.201C1253.81 494.953 1253.86 496.705 1253.9 498.457C1253.92 499.629 1253.92 499.629 1253.95 500.825C1254.06 505.052 1254.31 509.235 1254.69 513.445C1255.34 520.903 1255.57 528.367 1255.82 535.847C1255.9 538.495 1255.99 541.143 1256.08 543.79C1256.34 551.312 1256.59 558.834 1256.84 566.356C1256.99 570.987 1257.15 575.618 1257.31 580.248C1257.37 581.974 1257.42 583.701 1257.48 585.427C1258.02 602.319 1259.16 619.116 1260.22 636C1347.67 636 1435.12 636 1525.22 636C1525.47 619.946 1525.47 619.946 1524.22 604C1524.1 602.154 1524.01 600.306 1523.95 598.457C1523.92 597.403 1523.88 596.348 1523.85 595.262C1523.8 593.555 1523.8 593.555 1523.75 591.812C1523.71 590.594 1523.68 589.375 1523.64 588.12C1523.54 584.779 1523.44 581.437 1523.34 578.096C1523.26 575.282 1523.17 572.468 1523.09 569.655C1522.61 554.123 1522.17 538.59 1521.74 523.057C1521.68 520.645 1521.61 518.233 1521.54 515.822C1521.35 508.844 1521.16 501.867 1520.97 494.889C1520.9 491.989 1520.82 489.088 1520.74 486.187C1520.68 484.239 1520.63 482.291 1520.58 480.343C1520.3 470.209 1519.75 460.134 1519.22 450C1431.44 450 1343.66 450 1253.22 450Z" fill="#D9D9D9"/>
<path d="M721.216 440C789.856 440 858.496 440 929.216 440C929.827 451.012 930.366 461.948 930.604 472.963C930.866 484.79 931.301 496.573 932.153 508.375C933.341 524.996 933.88 541.634 934.461 558.285C934.846 569.258 935.248 580.228 935.786 591.195C935.856 592.632 935.856 592.632 935.927 594.097C936.145 598.514 936.37 602.929 936.606 607.345C937.073 616.442 937.265 625.506 937.239 634.616C937.236 636.266 937.236 636.266 937.234 637.95C937.229 640.633 937.223 643.317 937.216 646C910.521 646.047 883.827 646.082 857.133 646.104C844.739 646.114 832.346 646.128 819.952 646.151C809.153 646.171 798.354 646.184 787.556 646.188C781.834 646.191 776.113 646.197 770.392 646.211C765.013 646.225 759.634 646.229 754.254 646.226C752.275 646.227 750.295 646.231 748.316 646.238C745.623 646.248 742.931 646.246 740.239 646.241C739.447 646.246 738.655 646.252 737.839 646.258C732.444 646.228 732.444 646.228 730.216 644C729.85 641.298 729.604 638.677 729.434 635.961C729.375 635.13 729.316 634.298 729.256 633.442C729.067 630.753 728.891 628.064 728.716 625.375C728.598 623.68 728.479 621.984 728.36 620.289C728.032 615.581 727.727 610.872 727.424 606.162C727.211 602.927 726.982 599.693 726.751 596.459C724.944 570.332 724.134 544.162 723.224 517.991C723.045 512.898 722.861 507.805 722.677 502.711C722.497 497.741 722.321 492.771 722.146 487.801C722.064 485.458 721.98 483.115 721.895 480.773C721.777 477.492 721.664 474.211 721.551 470.93C721.517 470.002 721.483 469.073 721.447 468.116C721.134 458.732 721.216 449.41 721.216 440ZM734.216 451C734.163 464.156 734.163 464.156 734.964 477.072C735.443 482.643 735.532 488.232 735.68 493.82C735.739 495.805 735.797 497.79 735.856 499.775C735.998 504.586 736.133 509.397 736.265 514.208C736.67 528.886 737.225 543.515 738.452 558.152C739.151 566.652 739.613 575.153 739.997 583.672C740.042 584.663 740.042 584.663 740.088 585.673C740.366 591.753 740.635 597.833 740.893 603.914C741.009 606.641 741.13 609.367 741.256 612.094C741.372 614.625 741.481 617.156 741.583 619.687C741.636 620.824 741.69 621.96 741.745 623.132C741.788 624.124 741.831 625.116 741.875 626.138C742.188 629.591 742.188 629.591 744.216 635C803.616 635 863.016 635 924.216 635C923.508 612.485 923.508 612.485 922.216 590C922.076 587.009 921.949 584.026 921.858 581.034C921.832 580.244 921.806 579.455 921.779 578.641C921.723 576.949 921.669 575.257 921.615 573.566C921.529 570.829 921.439 568.092 921.349 565.355C921.188 560.469 921.03 555.582 920.873 550.696C919.804 517.457 918.545 484.231 917.216 451C856.826 451 796.436 451 734.216 451Z" fill="#D9D9D9"/>
<path d="M675.216 941C681.09 951.823 686.563 962.735 691.589 973.979C695.732 983.228 700.178 992.319 704.958 1001.26C706.398 1004.4 706.261 1005.77 705.216 1009C700.332 1010.81 695.586 1011.67 690.466 1012.44C684.762 1013.33 679.388 1014.43 673.899 1016.25C668.873 1017.66 663.705 1018.4 658.56 1019.25C648.808 1020.89 639.146 1023.04 629.472 1025.09C627.954 1025.41 626.435 1025.73 624.917 1026.04C622.703 1026.51 620.491 1026.97 618.278 1027.44C617.598 1027.58 616.918 1027.72 616.217 1027.87C612.616 1028.63 612.616 1028.63 609.216 1030C606.883 1030.04 604.549 1030.04 602.216 1030C601.843 1029.16 601.47 1028.33 601.086 1027.46C599.686 1024.33 598.284 1021.19 596.881 1018.05C596.278 1016.7 595.674 1015.35 595.072 1013.99C591.163 1005.16 591.163 1005.16 586.95 996.465C585.32 993.209 583.977 989.976 582.716 986.562C580.344 980.279 577.714 974.185 574.856 968.109C574.398 967.124 573.939 966.14 573.466 965.125C573.038 964.22 572.61 963.315 572.169 962.383C571.216 960 571.216 960 571.216 957C575.915 955.684 580.51 954.78 585.349 954.137C593.414 953.009 601.414 951.582 609.428 950.142C623.662 947.592 637.912 945.188 652.216 943.062C653.28 942.901 653.28 942.901 654.366 942.737C661.357 941.684 668.139 940.702 675.216 941Z" fill="#D9D9D9"/>
<path d="M782.606 1008.34C784.818 1008.76 787.032 1009.17 789.246 1009.58C792.209 1010.13 795.172 1010.68 798.135 1011.24C816.099 1014.6 834.128 1017.4 852.216 1020C852.216 1020.66 852.216 1021.32 852.216 1022C851.483 1022.31 850.75 1022.61 849.995 1022.92C844.827 1025.08 839.66 1027.23 834.497 1029.39C824.974 1033.38 815.443 1037.33 805.841 1041.13C799.371 1043.68 792.995 1046.39 786.653 1049.25C783.843 1050.51 781.031 1051.76 778.216 1053C777.178 1053.46 776.14 1053.92 775.071 1054.39C764.572 1058.66 754.172 1057.13 743.278 1055.13C741.16 1054.75 739.041 1054.38 736.923 1054.01C735.927 1053.83 734.932 1053.66 733.906 1053.47C730.765 1052.92 727.619 1052.42 724.466 1051.94C723.509 1051.79 722.553 1051.65 721.567 1051.5C718.792 1051.09 716.016 1050.68 713.239 1050.29C711.905 1050.09 711.905 1050.09 710.543 1049.89C708.789 1049.64 707.034 1049.39 705.279 1049.14C700.439 1048.43 695.926 1047.35 691.216 1046C687.184 1045.27 683.125 1044.72 679.067 1044.14C674.853 1043.52 671.106 1042.84 667.216 1041C667.216 1040.34 667.216 1039.68 667.216 1039C673.941 1035.9 680.775 1033.2 687.716 1030.63C688.777 1030.23 689.838 1029.83 690.931 1029.43C697.478 1026.99 704.038 1024.6 710.636 1022.31C714.825 1020.85 718.991 1019.35 723.149 1017.81C732.936 1014.19 742.697 1010.65 752.778 1007.94C753.892 1007.63 753.892 1007.63 755.028 1007.32C764.578 1004.89 773.08 1006.52 782.606 1008.34Z" fill="#D9D9D9"/>
<path d="M865.215 744C872.002 749.039 879.125 755.782 880.907 764.309C881.009 765.197 881.11 766.085 881.215 767C880.65 767.054 880.084 767.108 879.501 767.164C860.559 769.075 842.679 773.417 824.833 780.038C822.401 780.932 819.96 781.779 817.504 782.605C796.942 789.553 777.012 798.111 758.215 809C753.317 801.652 755.208 787.213 756.586 778.714C758.604 770.517 763.597 764.098 769.215 758C770.217 756.861 770.217 756.861 771.239 755.699C796.742 728.252 834.394 722.448 865.215 744Z" fill="#D9D9D9"/>
<path d="M916.085 738.754C917.322 738.756 918.56 738.758 919.834 738.759C920.522 738.758 921.21 738.756 921.918 738.754C924.234 738.751 926.549 738.762 928.865 738.773C930.52 738.773 932.175 738.773 933.831 738.772C938.335 738.771 942.839 738.783 947.343 738.797C952.046 738.81 956.749 738.811 961.452 738.813C970.363 738.819 979.273 738.836 988.184 738.856C998.326 738.878 1008.47 738.889 1018.61 738.899C1039.48 738.92 1060.35 738.955 1081.22 739C1080.65 742.945 1079.77 745.89 1077.22 749C1074.44 749.615 1074.44 749.615 1071.01 749.601C1069.71 749.608 1068.41 749.615 1067.07 749.622C1065.63 749.604 1064.18 749.586 1062.74 749.568C1061.22 749.566 1059.7 749.567 1058.19 749.57C1054.06 749.571 1049.94 749.542 1045.81 749.507C1041.51 749.476 1037.2 749.473 1032.89 749.467C1024.73 749.451 1016.57 749.41 1008.41 749.36C999.122 749.304 989.833 749.277 980.544 749.252C961.434 749.199 942.325 749.111 923.216 749C923.357 762.208 923.503 775.417 923.653 788.625C923.67 790.087 923.67 790.087 923.687 791.578C924.103 828.495 924.103 828.495 924.911 865.405C925.287 879.952 925.216 894.425 925.216 909C950.956 909 976.696 909 1003.22 909C1000.37 917.525 1000.37 917.525 998.216 920C995.307 920.487 992.981 920.634 990.072 920.568C989.243 920.568 988.413 920.569 987.559 920.57C984.815 920.566 982.073 920.527 979.329 920.488C977.427 920.479 975.526 920.472 973.625 920.467C968.618 920.448 963.613 920.399 958.607 920.343C953.499 920.292 948.392 920.269 943.284 920.244C933.261 920.19 923.238 920.105 913.216 920C912.302 898.981 911.906 877.973 911.653 856.937C911.632 855.26 911.612 853.582 911.591 851.905C911.281 826.509 911.086 801.113 911.034 775.715C911.028 773.251 911.018 770.787 911.007 768.324C910.991 764.475 910.985 760.626 910.986 756.778C910.986 755.366 910.981 753.954 910.974 752.542C910.964 750.622 910.968 748.702 910.973 746.782C910.971 745.707 910.97 744.632 910.968 743.525C911.337 739.759 912.37 739.072 916.085 738.754Z" fill="#D9D9D9"/>
<path d="M878.403 1075.94C880.147 1075.94 880.147 1075.94 881.926 1075.94C911.356 1075.95 940.786 1075.97 970.216 1076C970.258 1078.33 970.257 1080.67 970.216 1083C968.138 1085.08 963.615 1084.19 960.751 1084.21C959.836 1084.22 958.921 1084.23 957.978 1084.24C954.816 1084.27 951.655 1084.29 948.493 1084.32C946.146 1084.34 943.798 1084.36 941.45 1084.38C934.067 1084.44 926.683 1084.5 919.299 1084.55C917.165 1084.56 915.03 1084.58 912.896 1084.59C842.194 1085.12 771.49 1085.11 700.786 1085.12C692.911 1085.12 685.036 1085.13 677.161 1085.13C676.378 1085.13 675.596 1085.13 674.789 1085.13C673.617 1085.13 673.617 1085.13 672.42 1085.13C657.211 1085.14 642.001 1085.14 626.791 1085.14C625.353 1085.14 623.916 1085.13 622.478 1085.13C621.772 1085.13 621.066 1085.13 620.339 1085.13C615.39 1085.13 610.44 1085.13 605.491 1085.14C598.91 1085.14 592.33 1085.14 585.749 1085.13C583.34 1085.13 580.932 1085.13 578.523 1085.13C575.26 1085.14 571.997 1085.13 568.734 1085.13C567.772 1085.13 566.811 1085.13 565.821 1085.13C559.33 1085.11 559.33 1085.11 558.216 1084C558.175 1081.67 558.173 1079.33 558.216 1077C587.695 1076.82 617.174 1076.66 646.653 1076.5C647.77 1076.49 648.887 1076.49 650.038 1076.48C726.16 1076.08 802.28 1075.91 878.403 1075.94Z" fill="#D9D9D9"/>
<path d="M1355.22 940C1359.49 941.337 1363.45 942.955 1367.47 944.938C1368.5 945.442 1369.54 945.946 1370.61 946.465C1373.22 948 1373.22 948 1375.22 951C1375.44 953.874 1375.56 956.659 1375.59 959.535C1375.61 960.37 1375.63 961.204 1375.65 962.064C1375.7 964.73 1375.74 967.396 1375.78 970.062C1375.82 972.732 1375.87 975.402 1375.92 978.072C1375.95 979.733 1375.98 981.395 1376 983.057C1375.98 987.161 1375.98 987.161 1377.22 991C1378.87 991 1380.52 991 1382.22 991C1382.55 977.14 1382.88 963.28 1383.22 949C1398.4 949 1413.58 949 1429.22 949C1429.22 964.84 1429.22 980.68 1429.22 997C1421.42 997.138 1413.63 997.257 1405.84 997.33C1403.19 997.36 1400.54 997.401 1397.9 997.453C1394.08 997.526 1390.26 997.56 1386.44 997.586C1385.27 997.617 1384.1 997.648 1382.89 997.68C1374.72 997.683 1369.77 995.806 1363.22 991C1362.03 990.225 1360.84 989.454 1359.65 988.688C1357.22 987 1357.22 987 1356.22 986C1355.96 983.181 1355.78 980.388 1355.65 977.562C1355.59 976.261 1355.59 976.261 1355.52 974.933C1355.02 963.295 1355.13 951.646 1355.22 940Z" fill="#080808"/>
<path d="M1346.22 1076C1464.36 1076 1582.5 1076 1704.22 1076C1704.22 1078.31 1704.22 1080.62 1704.22 1083C1686.4 1083 1668.58 1083 1650.22 1083C1650.22 1093.89 1650.22 1104.78 1650.22 1116C1646.26 1116 1642.3 1116 1638.22 1116C1638.22 1105.11 1638.22 1094.22 1638.22 1083C1541.86 1083 1445.5 1083 1346.22 1083C1346.22 1080.69 1346.22 1078.38 1346.22 1076Z" fill="#D9D9D9"/>
<path d="M1239.22 738C1250.8 737.977 1262.39 737.959 1273.98 737.948C1279.36 737.943 1284.74 737.936 1290.12 737.924C1295.3 737.914 1300.49 737.908 1305.68 737.905C1307.66 737.903 1309.64 737.9 1311.63 737.894C1314.4 737.887 1317.16 737.886 1319.93 737.886C1320.76 737.883 1321.59 737.879 1322.44 737.875C1328.1 737.886 1328.1 737.886 1329.22 739C1329.34 740.898 1329.39 742.801 1329.41 744.702C1329.43 745.942 1329.45 747.182 1329.47 748.459C1329.48 749.847 1329.5 751.235 1329.51 752.622C1329.53 754.074 1329.55 755.527 1329.57 756.979C1329.63 760.943 1329.67 764.908 1329.72 768.872C1329.77 773.042 1329.83 777.212 1329.88 781.381C1329.97 788.414 1330.06 795.446 1330.15 802.479C1330.24 810.537 1330.35 818.595 1330.45 826.653C1330.56 835.29 1330.67 843.928 1330.78 852.565C1330.81 855.017 1330.84 857.468 1330.88 859.92C1331.13 879.615 1331.28 899.303 1331.22 919C1328.58 919 1325.94 919 1323.22 919C1322.38 917.545 1321.55 916.086 1320.72 914.625C1320.02 913.407 1320.02 913.407 1319.31 912.164C1318.22 910 1318.22 910 1318.22 908C1318.88 908 1319.54 908 1320.22 908C1320.19 907.196 1320.16 906.392 1320.13 905.564C1319.33 881.581 1318.94 857.603 1318.68 833.609C1318.64 829.895 1318.6 826.181 1318.56 822.467C1318.26 797.644 1318.16 772.825 1318.22 748C1317.3 748.018 1316.38 748.035 1315.44 748.054C1306.8 748.214 1298.17 748.336 1289.53 748.414C1285.09 748.456 1280.65 748.513 1276.21 748.603C1271.92 748.69 1267.64 748.738 1263.35 748.759C1261.72 748.774 1260.08 748.803 1258.45 748.846C1245.64 749.171 1245.64 749.171 1242.08 746.236C1240.3 743.503 1239.22 741.282 1239.22 738Z" fill="#D9D9D9"/>
<path d="M893.216 969C899.446 969.3 905.415 970.364 911.466 971.812C912.139 971.966 912.812 972.119 913.505 972.276C920.304 973.973 925.378 977.115 929.216 983C932.154 989.156 933.923 995.32 935.216 1002C934.346 1002.58 934.346 1002.58 933.458 1003.18C924.486 1009.61 920.115 1017.47 917.216 1028C903.766 1028.46 891.744 1027.83 880.216 1020C877.642 1017.43 877.904 1015.45 877.571 1011.95C877.342 1009.83 877.342 1009.83 875.591 1007.94C873.478 1004.96 874.647 1002.47 875.216 999C874.556 998.01 873.896 997.02 873.216 996C872.903 992.938 872.903 992.938 873.216 990C874.206 989.34 875.196 988.68 876.216 988C875.56 984.39 875.56 984.39 874.216 981C874.028 978 874.028 978 874.216 975C876.216 973 876.216 973 878.837 972.633C883.254 973.113 886.407 974.786 890.278 976.875C897.367 980.6 903.185 983.183 911.216 984C911.114 982.062 911.114 982.062 910.216 980C907.886 978.558 907.886 978.558 905.028 977.5C900.7 975.668 896.918 973.902 893.216 971C893.216 970.34 893.216 969.68 893.216 969Z" fill="#D9D9D9"/>
<path d="M1382.22 899C1397.4 899 1412.58 899 1428.22 899C1428.24 905.909 1428.26 912.819 1428.28 919.938C1428.29 922.121 1428.3 924.305 1428.31 926.554C1428.31 928.275 1428.31 929.995 1428.31 931.715C1428.32 932.617 1428.32 933.518 1428.33 934.447C1428.33 936.632 1428.28 938.816 1428.22 941C1427.22 942 1427.22 942 1425.43 942.12C1424.65 942.118 1423.87 942.116 1423.06 942.114C1422.18 942.113 1421.3 942.113 1420.39 942.113C1419.44 942.108 1418.48 942.103 1417.49 942.098C1416.52 942.096 1415.54 942.095 1414.54 942.093C1411.41 942.088 1408.28 942.075 1405.15 942.062C1403.04 942.057 1400.92 942.053 1398.81 942.049C1393.61 942.038 1388.41 942.021 1383.22 942C1382.59 931.263 1382.06 920.573 1382.15 909.812C1382.17 906.244 1382.2 902.676 1382.22 899Z" fill="#080808"/>
<path d="M911.938 940.762C912.68 940.754 913.421 940.745 914.185 940.737C915.752 940.723 917.32 940.713 918.887 940.705C920.469 940.693 922.05 940.673 923.632 940.643C945.738 940.229 945.738 940.229 953.497 946.987C955.216 949 955.216 949 955.841 951.437C955.095 954.495 953.822 955.915 951.329 957.801C935.426 966.825 913.799 965.756 896.493 961.988C890.684 960.236 886.595 958.068 883.216 953C883.529 949.661 884.678 948.107 887.216 946C889.958 944.867 889.958 944.867 893.091 943.875C894.119 943.542 895.148 943.21 896.208 942.867C901.499 941.342 906.441 940.819 911.938 940.762Z" fill="#D9D9D9"/>
<path d="M708.216 864C717.126 864 726.036 864 735.216 864C735.216 866.97 735.216 869.94 735.216 873C734.216 874 734.216 874 730.618 874.098C729.13 874.091 727.642 874.079 726.153 874.062C725.015 874.056 725.015 874.056 723.854 874.049C721.975 874.037 720.095 874.019 718.216 874C718.216 876.31 718.216 878.62 718.216 881C718.856 880.954 719.497 880.907 720.157 880.859C726.499 880.595 730.11 881.145 735.216 885C739.328 890.586 739.207 896.318 738.216 903C736.202 907.463 733.383 910.151 729.466 913C723.693 914.776 717.842 915.202 712.341 912.375C709.014 909.847 707.113 907.716 705.216 904C706.216 901 706.216 901 708.466 899.75C711.602 898.895 713.173 898.879 716.216 900C718.028 902.062 718.028 902.062 719.216 904C722.826 903.344 722.826 903.344 726.216 902C726.297 900.376 726.355 898.75 726.403 897.125C726.438 896.22 726.473 895.315 726.509 894.383C726.364 893.203 726.364 893.203 726.216 892C722.992 889.851 721.949 889.617 718.216 890C717.556 890.66 716.896 891.32 716.216 892C713.459 892.017 710.949 891.477 708.216 891C706.478 889.262 707.084 887.027 707.079 884.713C707.085 883.648 707.085 883.648 707.091 882.562C707.087 881.888 707.083 881.213 707.079 880.518C707.09 874.9 707.65 869.658 708.216 864Z" fill="#D9D9D9"/>
<path d="M758.153 862.688C759.173 862.671 760.193 862.654 761.243 862.637C766.311 863.256 770.118 866.062 773.259 870.07C775.314 874.214 774.994 878.542 774.216 883C772.994 886.066 771.269 888.43 769.216 891C768.518 891.896 767.821 892.792 767.103 893.715C765.167 896.166 763.205 898.592 761.216 901C762.714 901.091 762.714 901.091 764.243 901.184C765.534 901.267 766.824 901.351 768.153 901.438C769.441 901.519 770.729 901.6 772.056 901.684C775.216 902 775.216 902 776.216 903C776.349 904.812 776.349 904.812 776.341 907C776.345 908.083 776.345 908.083 776.349 909.188C776.216 911 776.216 911 775.216 912C772.84 912.088 770.494 912.115 768.118 912.098C767.055 912.096 767.055 912.096 765.97 912.093C763.698 912.088 761.426 912.075 759.153 912.062C757.616 912.057 756.079 912.053 754.542 912.049C750.767 912.038 746.991 912.021 743.216 912C742.795 904.566 742.795 904.566 744.649 902.074C745.641 901.388 745.641 901.388 746.653 900.688C753.152 895.648 759.702 888.996 762.216 881C762.466 877.333 762.466 877.333 762.216 874C761.032 872.584 761.032 872.584 757.653 872.938C755.952 872.968 755.952 872.968 754.216 873C753.556 874.98 752.896 876.96 752.216 879C748.916 878.67 745.616 878.34 742.216 878C742.586 871.831 743.974 869.242 748.216 865C751.522 862.887 754.266 862.702 758.153 862.688Z" fill="#D9D9D9"/>
<path d="M661.653 866.625C665.731 870.404 668.402 873.594 668.841 879.25C668.355 888.916 660.125 896.952 654.216 904C655.715 903.983 655.715 903.983 657.243 903.965C658.534 903.956 659.824 903.947 661.153 903.937C662.441 903.926 663.729 903.914 665.056 903.902C668.216 904 668.216 904 669.216 905C669.216 907.97 669.216 910.94 669.216 914C658.656 914 648.096 914 637.216 914C637.216 906 637.216 906 638.314 904.057C638.821 903.618 639.327 903.179 639.849 902.726C640.405 902.217 640.962 901.707 641.536 901.182C642.131 900.668 642.727 900.154 643.341 899.625C649.516 893.886 655.473 888.203 656.716 879.5C656.424 876.838 656.424 876.838 654.216 875C651.706 874.934 651.706 874.934 649.216 876C647.372 878.461 647.372 878.461 646.216 881C642.916 880.67 639.616 880.34 636.216 880C635.768 876.939 635.727 874.795 637.376 872.113C643.572 864.555 652.612 862.351 661.653 866.625Z" fill="#D9D9D9"/>
<path d="M1353.22 889C1357.8 889.684 1361.32 890.779 1365.47 892.875C1366.5 893.388 1367.54 893.901 1368.61 894.43C1371.22 896 1371.22 896 1373.22 899C1373.53 901.059 1373.53 901.059 1373.63 903.438C1373.67 904.324 1373.71 905.211 1373.75 906.125C1373.78 907.073 1373.81 908.022 1373.84 909C1373.88 909.971 1373.92 910.942 1373.96 911.942C1374.29 921.295 1374.31 930.643 1374.22 940C1369.77 939.392 1366.44 937.708 1362.53 935.562C1361.39 934.945 1360.25 934.328 1359.08 933.691C1356.22 932 1356.22 932 1354.22 930C1352.61 921.106 1353.09 911.749 1353.15 902.75C1353.16 901.408 1353.16 900.065 1353.17 898.723C1353.18 895.482 1353.19 892.241 1353.22 889Z" fill="#080808"/>
<path d="M622.403 865.813C623.678 865.862 623.678 865.862 624.979 865.913C626.086 865.956 626.086 865.956 627.216 866C628.055 877.185 628.344 888.286 628.278 899.5C628.273 901.017 628.269 902.534 628.265 904.051C628.254 907.701 628.237 911.35 628.216 915C626.57 915.027 624.924 915.046 623.278 915.063C622.362 915.074 621.445 915.086 620.501 915.098C618.216 915 618.216 915 617.216 914C617.127 911.479 617.1 908.986 617.118 906.465C617.119 905.712 617.121 904.958 617.122 904.182C617.128 901.767 617.14 899.352 617.153 896.938C617.158 895.304 617.163 893.671 617.167 892.037C617.178 888.025 617.195 884.012 617.216 880C616.54 880.505 615.865 881.011 615.169 881.531C614.277 882.181 613.385 882.831 612.466 883.5C611.584 884.15 610.702 884.799 609.794 885.469C607.216 887 607.216 887 603.216 887C602.584 883.38 602.253 881.469 603.216 878C606.521 874.48 610.311 871.814 614.216 869C614.721 868.424 615.226 867.848 615.747 867.254C617.914 865.404 619.614 865.704 622.403 865.813Z" fill="#D9D9D9"/>
<path d="M918.341 945.688C919.856 945.692 919.856 945.692 921.402 945.696C930.129 945.817 939.754 946.026 947.216 951C947.216 951.66 947.216 952.32 947.216 953C937.317 957.839 927.029 958.344 916.153 958.313C915.047 958.329 913.94 958.345 912.8 958.361C906.234 958.365 899.083 958.321 893.216 955C892.45 952.892 892.45 952.892 892.216 951C900.99 946.979 908.726 945.635 918.341 945.688Z" fill="#D9D9D9"/>
<path d="M944.216 824C965.006 824 985.796 824 1007.22 824C1007.22 837.2 1007.22 850.4 1007.22 864C986.426 864 965.636 864 944.216 864C944.216 850.8 944.216 837.6 944.216 824Z" fill="#D9D9D9"/>
<path d="M945.216 773C959.736 773 974.256 773 989.216 773C989.216 786.86 989.216 800.72 989.216 815C974.696 815 960.176 815 945.216 815C945.216 801.14 945.216 787.28 945.216 773Z" fill="#D9D9D9"/>
<path d="M995.216 781C1012.05 781 1028.88 781 1046.22 781C1046.22 792.22 1046.22 803.44 1046.22 815C1039.11 815.023 1032.01 815.043 1024.91 815.055C1022.49 815.06 1020.07 815.067 1017.65 815.075C1014.19 815.088 1010.72 815.093 1007.25 815.098C1006.16 815.103 1005.07 815.108 1003.95 815.113C1002.45 815.113 1002.45 815.113 1000.92 815.114C999.59 815.117 999.59 815.117 998.235 815.12C996.216 815 996.216 815 995.216 814C995.128 811.552 995.101 809.132 995.118 806.684C995.119 806.036 995.12 805.388 995.121 804.721C995.127 802.293 995.141 799.865 995.154 797.438C995.174 792.013 995.195 786.589 995.216 781Z" fill="#D9D9D9"/>
<path d="M1017.22 824C1038.67 824 1060.12 824 1082.22 824C1082.22 831.59 1082.22 839.18 1082.22 847C1060.77 847 1039.32 847 1017.22 847C1017.22 839.41 1017.22 831.82 1017.22 824Z" fill="#D9D9D9"/>
<path d="M1054.22 780C1058.51 780 1062.8 780 1067.22 780C1067.22 791.22 1067.22 802.44 1067.22 814C1062.6 814 1057.98 814 1053.22 814C1053.19 809.319 1053.17 804.637 1053.16 799.956C1053.16 798.362 1053.15 796.768 1053.14 795.175C1053.13 792.888 1053.12 790.602 1053.12 788.316C1053.11 787.6 1053.11 786.883 1053.1 786.145C1053.1 784.429 1053.15 782.714 1053.22 781C1053.55 780.67 1053.88 780.34 1054.22 780Z" fill="#D9D9D9"/>
<path d="M965.711 959C967.199 959.007 968.688 959.019 970.176 959.035C970.935 959.04 971.693 959.044 972.475 959.049C974.354 959.061 976.234 959.079 978.114 959.098C977.492 961.956 976.597 964.324 975.239 966.91C973.931 969.44 972.8 971.881 971.739 974.535C969.186 980.132 966.297 985.642 961.114 989.098C961.089 984.986 961.071 980.874 961.059 976.762C961.054 975.363 961.047 973.963 961.038 972.563C961.026 970.555 961.021 968.547 961.016 966.539C961.011 965.329 961.005 964.12 961 962.873C961.171 958.698 961.393 959.117 965.711 959Z" fill="#D9D9D9"/>
<path d="M1209.22 680C1212.74 682.822 1216.02 685.812 1219.22 689C1219.78 689.54 1220.34 690.08 1220.92 690.637C1231.51 701.726 1233.44 715.223 1233.72 729.875C1233.77 731.117 1233.82 732.358 1233.88 733.637C1233.97 739.712 1233.98 743.974 1229.92 748.727C1224.89 753.626 1220.1 756.181 1213.03 756.438C1205.56 756.146 1195.81 755.448 1190.22 750C1189.97 746.813 1189.97 746.813 1190.22 744C1194.44 742.082 1198.58 740.58 1203.03 739.25C1211.56 736.445 1218.89 732.056 1223.22 724C1222.89 723.67 1222.56 723.34 1222.22 723C1221.61 723.459 1221 723.918 1220.38 724.391C1211.33 731.02 1200.74 736.562 1189.22 736C1187.73 731.118 1187.73 731.118 1188.22 728C1190.21 725.733 1192.42 724.009 1194.79 722.133C1200.67 716.965 1203.97 709.376 1206.22 702C1206.26 700.334 1206.27 698.666 1206.22 697C1205.79 697.846 1205.37 698.691 1204.93 699.563C1199.99 709.127 1194.77 717.516 1185.22 723C1180.81 723.105 1178.42 720.838 1175.22 718C1175.63 714.672 1176.6 712.116 1178.15 709.188C1182.35 700.971 1182.79 693.133 1182.22 684C1181.89 683.67 1181.56 683.34 1181.22 683C1181.01 683.993 1180.8 684.985 1180.59 686.008C1178.49 695.447 1175.96 705.056 1170.22 713C1166.2 714.578 1161.74 714.083 1157.47 714C1155.04 713.955 1152.64 713.953 1150.22 714C1149.89 714.33 1149.56 714.66 1149.22 715C1147.03 715.5 1147.03 715.5 1144.22 715C1136.79 708.782 1133.03 699.124 1130.11 690.188C1129.43 687.831 1129.43 687.831 1127.22 687C1127.26 698.109 1130.92 708.547 1138.22 717C1136.54 720.96 1134.32 724.031 1131.22 727C1126.26 727.584 1123.33 725.729 1119.28 722.938C1112.64 717.394 1109.59 709.77 1106.22 702C1105.89 702.33 1105.56 702.66 1105.22 703C1105.35 711.61 1108.27 718.757 1114.18 725.113C1117.93 728.47 1121.96 731.338 1126.22 734C1125.34 738.875 1125.34 738.875 1124.22 740C1113.15 740.678 1104.76 740.264 1095.22 734C1099.49 739.705 1103.98 743.61 1111.22 745C1113.63 745.221 1116.05 745.406 1118.47 745.563C1120.36 745.688 1120.36 745.688 1122.29 745.817C1123.26 745.877 1124.22 745.938 1125.22 746C1125.55 747.65 1125.88 749.3 1126.22 751C1117.7 754.792 1109.43 758.283 1100.12 755.336C1095.52 753.089 1093.09 749.613 1091.22 745C1089.19 738.45 1088.88 732.394 1088.9 725.563C1088.89 724.577 1088.87 723.592 1088.85 722.576C1088.85 708.365 1095.12 696.56 1104.81 686.344C1133.99 657.964 1176.11 656.91 1209.22 680Z" fill="#D9D9D9"/>
<path d="M1167.65 814.875C1169.16 814.869 1169.16 814.869 1170.7 814.863C1171.65 814.864 1172.6 814.866 1173.59 814.867C1174.89 814.869 1174.89 814.869 1176.21 814.87C1178.22 815 1178.22 815 1179.22 816C1179.43 818.754 1179.59 821.492 1179.72 824.25C1180.02 831.177 1180.02 831.177 1181.22 838C1181.88 838 1182.54 838 1183.22 838C1183.18 837.07 1183.15 836.141 1183.11 835.183C1182.84 822.905 1182.84 822.905 1186.22 817C1189.52 817 1192.82 817 1196.22 817C1196.21 817.765 1196.21 818.531 1196.21 819.32C1196.22 822.839 1196.28 826.356 1196.34 829.875C1196.34 831.079 1196.34 832.283 1196.33 833.523C1196.54 843.088 1198.84 849.62 1205.65 856.437C1211.23 859.839 1216.91 861.562 1223.22 863C1223.22 863.66 1223.22 864.32 1223.22 865C1215.35 868.75 1207.55 872.415 1199.22 875C1198.09 875.374 1196.96 875.748 1195.79 876.133C1169.49 883.869 1135.68 881.056 1111.22 869C1110.41 868.626 1109.59 868.252 1108.76 867.867C1103.38 865.322 1103.38 865.322 1102.22 863C1103.16 862.697 1104.1 862.394 1105.07 862.082C1113.65 859.193 1119.93 856.724 1125.22 849C1128.12 842.14 1128.72 835.243 1128.9 827.875C1128.94 826.918 1128.97 825.962 1129.01 824.976C1129.09 822.651 1129.15 820.326 1129.22 818C1132.52 818 1135.82 818 1139.22 818C1139.3 818.727 1139.39 819.454 1139.48 820.203C1140.8 829.669 1142.88 839.38 1150.22 846C1149.93 844.816 1149.64 843.633 1149.34 842.414C1145.02 824.226 1145.02 824.226 1146.22 818C1150.95 813.261 1161.32 814.85 1167.65 814.875Z" fill="#D9D9D9"/>
<path d="M1167.22 720C1174.15 723.325 1179.94 728.506 1183.44 735.426C1185.73 743.052 1184.93 751.602 1181.6 758.781C1177.13 765.951 1170.21 769.788 1162.22 772C1155.3 772.864 1148.54 771.166 1142.72 767.371C1136.24 762.102 1132.88 756.514 1131.88 748.199C1131.61 740.644 1133.14 735.144 1137.28 728.875C1145.42 720.187 1155.65 717.392 1167.22 720Z" fill="#D9D9D9"/>
<path d="M1087.72 754.938C1091.53 756.558 1093.4 759.36 1095.22 763C1095.51 765.33 1095.78 767.665 1096.03 770C1097.37 780.764 1101.33 792.115 1109.22 800C1109.54 801.556 1109.82 803.121 1110.09 804.688C1111.68 812.749 1114.67 817.159 1121.22 822C1122.21 822.495 1122.21 822.495 1123.22 823C1123.22 823.66 1123.22 824.32 1123.22 825C1118.74 825.309 1116.12 825.425 1112.03 823.5C1107.21 819.22 1104.36 814.851 1103.4 808.438C1102.52 803.569 1100.15 801.899 1096.38 798.938C1087.33 790.828 1082.22 777.44 1080.96 765.574C1080.77 761.738 1080.79 759.662 1082.9 756.375C1085.22 755 1085.22 755 1087.72 754.938Z" fill="#D9D9D9"/>
<path d="M1236.84 752.312C1239.22 753 1239.22 753 1240.84 755.148C1244.26 762.244 1242.74 771.722 1240.22 779C1239.74 780.497 1239.74 780.497 1239.25 782.023C1236.12 791.06 1231.81 799.56 1223.34 804.625C1220.22 806 1220.22 806 1218.22 806C1218.63 804.763 1219.04 803.525 1219.47 802.25C1219.74 801.42 1220.01 800.589 1220.29 799.734C1220.9 797.925 1221.54 796.124 1222.19 794.333C1225.28 785.712 1226.51 777.246 1227.55 768.184C1229.4 754.261 1229.4 754.261 1236.84 752.312Z" fill="#D9D9D9"/>
<path d="M1248.22 776C1254.67 783.899 1255.9 793.582 1255.6 803.508C1254.77 811.07 1251.46 816.615 1246.22 822C1245.56 822 1244.9 822 1244.22 822C1244.38 821.001 1244.54 820.002 1244.71 818.973C1245.26 815.116 1245.35 811.335 1245.34 807.438C1245.34 806.178 1245.35 804.919 1245.35 803.621C1245.23 800.31 1244.82 797.252 1244.22 794C1243.64 787.084 1245.34 782.268 1248.22 776Z" fill="#D9D9D9"/>
<path d="M1106.22 766C1108.58 768.16 1109.98 770.189 1111.38 773.062C1111.78 773.854 1112.17 774.646 1112.58 775.462C1112.99 776.299 1113.41 777.137 1113.84 778C1117.88 785.908 1122.21 792.423 1128.22 799C1129.41 800.393 1130.6 801.788 1131.78 803.188C1132.98 804.58 1132.98 804.58 1134.22 806C1128.24 806.748 1124.78 804.528 1120.22 801C1111.7 793.397 1106.86 785.393 1105.96 773.703C1105.97 771.122 1106.03 768.574 1106.22 766Z" fill="#D9D9D9"/>
<path d="M1216.22 772C1216.88 772 1217.54 772 1218.22 772C1218.65 784.564 1217.34 796.292 1208.41 805.957C1205.56 808.475 1202.74 810.52 1199.22 812C1196.47 811.625 1196.47 811.625 1194.22 811C1195.03 808.562 1195.03 808.562 1196.22 806C1197.7 805.505 1197.7 805.505 1199.22 805C1199.92 803.687 1200.59 802.351 1201.22 801C1202.1 800.113 1202.99 799.226 1203.9 798.312C1208.76 792.86 1210.92 785.618 1213.49 778.894C1214.37 776.586 1215.29 774.292 1216.22 772Z" fill="#D9D9D9"/>
<path d="M1235.22 802C1236.21 802.33 1237.2 802.66 1238.22 803C1240.87 810.963 1240.64 822.379 1236.9 829.938C1235.31 832.653 1233.62 834.947 1231.22 837C1230.56 837 1229.9 837 1229.22 837C1230.13 830.332 1230.13 830.332 1230.76 827.859C1231.55 822.902 1231.14 817.864 1230.91 812.861C1230.78 806.561 1230.78 806.561 1233.23 803.41C1233.88 802.945 1234.54 802.479 1235.22 802Z" fill="#D9D9D9"/>
<path d="M1144.22 778C1144.88 778 1145.54 778 1146.22 778C1146.43 778.799 1146.65 779.598 1146.88 780.422C1149.52 789.562 1152.92 798.056 1158.22 806C1157.84 808.688 1157.84 808.688 1157.22 811C1153.58 810.752 1151.72 810.474 1149.03 807.938C1144.69 800.915 1143.79 795.078 1144.03 787C1144.04 786.13 1144.06 785.26 1144.07 784.363C1144.1 782.242 1144.16 780.121 1144.22 778Z" fill="#D9D9D9"/>
<path d="M1475.22 946C1483.09 946.875 1483.09 946.875 1484.22 948C1487.13 948.525 1490.04 948.999 1492.97 949.438C1494.15 949.62 1494.15 949.62 1495.37 949.807C1497.01 950.059 1498.65 950.307 1500.29 950.551C1502.25 950.852 1504.2 951.169 1506.15 951.504C1513.67 952.762 1520.95 953.332 1528.57 953.371C1530.27 953.385 1530.27 953.385 1532.02 953.398C1534.42 953.413 1536.81 953.422 1539.21 953.426C1542.78 953.437 1546.35 953.486 1549.93 953.537C1564.61 953.637 1578.26 952.141 1592.62 949.078C1596.95 948.172 1600.81 947.752 1605.22 948C1604.69 956.564 1603.18 964.753 1601.34 973.125C1601.08 974.335 1600.83 975.546 1600.56 976.793C1596.57 995.247 1596.57 995.247 1592.22 999C1577.53 1005.76 1560.21 1005.19 1544.42 1005.19C1541.85 1005.19 1539.29 1005.21 1536.72 1005.22C1524.22 1005.27 1512.28 1004.35 1500.15 1001.06C1498.34 1000.58 1498.34 1000.58 1496.49 1000.1C1492.22 998.665 1489.26 997.39 1486.52 993.738C1485.02 990.579 1484.2 987.596 1483.4 984.188C1483.07 982.778 1482.73 981.37 1482.4 979.961C1482.22 979.183 1482.03 978.406 1481.84 977.604C1481.13 974.658 1480.38 971.724 1479.63 968.789C1479.35 967.719 1479.08 966.649 1478.8 965.546C1478.25 963.417 1477.7 961.29 1477.15 959.163C1476.9 958.177 1476.65 957.191 1476.39 956.176C1476.16 955.298 1475.94 954.421 1475.7 953.517C1475.21 950.948 1475.13 948.61 1475.22 946Z" fill="#D9D9D9"/>
<path d="M1588.22 778C1591.43 779.499 1593.98 781.245 1596.22 784C1597.69 792.124 1595.53 799.027 1591.05 805.75C1587.62 810.184 1583.52 813.232 1578.22 815C1576.98 816.86 1576.98 816.86 1576.03 819.062C1575.43 820.362 1574.83 821.661 1574.22 823C1577.19 823 1580.16 823 1583.22 823C1583.88 821.68 1584.54 820.36 1585.22 819C1593.57 810.18 1602.77 807.069 1614.67 806.664C1624.54 806.501 1632.84 807.792 1641.47 812.937C1643.22 815 1643.22 815 1643.54 817.406C1643.03 821.501 1640.71 822.85 1637.64 825.359C1633.76 827.989 1629.65 829.535 1625.22 831C1624.36 831.356 1623.5 831.711 1622.61 832.078C1617.73 833.404 1613.01 833.408 1607.97 833.437C1606.98 833.47 1605.99 833.503 1604.98 833.537C1597.7 833.59 1592.31 832.039 1586.22 828C1585.68 827.456 1585.15 826.912 1584.61 826.352C1583.21 824.719 1583.21 824.719 1580.52 824.707C1579.53 824.742 1578.54 824.776 1577.53 824.812C1576.53 824.839 1575.54 824.866 1574.52 824.894C1573.76 824.929 1573 824.964 1572.22 825C1571.68 826.062 1571.15 827.124 1570.61 828.219C1569.19 831.052 1567.77 833.885 1566.36 836.719C1566.01 837.422 1565.65 838.126 1565.29 838.851C1564.56 840.308 1563.83 841.761 1563.08 843.211C1562.55 844.266 1562.55 844.266 1562 845.344C1561.67 845.975 1561.35 846.606 1561.01 847.256C1560.01 849.456 1559.52 851.604 1559.22 854C1564.14 852.768 1567.4 850.56 1571.29 847.437C1576.44 843.595 1580.92 843.353 1587.22 844C1591.32 845.493 1594.31 846.98 1596.22 851C1596.45 854.018 1596.39 856.98 1596.22 860C1597.27 859.525 1598.32 859.051 1599.4 858.562C1608.18 854.603 1617.99 855.065 1626.98 858.07C1630.45 859.513 1633.54 861.322 1636.22 864C1636.59 867.352 1636.7 869.288 1634.78 872.125C1631.19 874.75 1627.31 876.317 1623.22 878C1622.23 878.495 1622.23 878.495 1621.22 879C1618.45 879.151 1615.73 879.231 1612.97 879.25C1612.21 879.27 1611.46 879.291 1610.69 879.312C1603.33 879.364 1598.8 876.759 1593.22 872C1588.2 873.861 1583.84 875.993 1580.22 880C1580.5 880.577 1580.79 881.155 1581.09 881.75C1581.65 882.864 1581.65 882.864 1582.22 884C1582.59 884.619 1582.96 885.237 1583.34 885.875C1584.6 888.944 1584.81 890.703 1584.22 894C1581.16 897.604 1577.93 900.215 1573.22 901C1567.25 901.429 1561.78 901.272 1556.22 899C1553.01 895.757 1552.76 893.097 1552.72 888.625C1552.94 881.359 1552.94 881.359 1555.03 878.187C1559.73 874.963 1563.69 875.453 1569.22 876C1570.45 876.122 1570.45 876.122 1571.71 876.246C1573.55 876.459 1575.38 876.723 1577.22 877C1578.21 875.02 1578.21 875.02 1579.22 873C1578.35 872.814 1577.48 872.629 1576.59 872.437C1571.09 870.093 1567.53 865.484 1565.22 860C1565.22 859.01 1565.22 858.02 1565.22 857C1562.58 857.33 1559.94 857.66 1557.22 858C1556.11 861.291 1555.01 864.583 1553.9 867.875C1553.44 869.252 1553.44 869.252 1552.97 870.656C1551.17 876.046 1549.48 881.438 1547.99 886.923C1546.27 891.546 1542.86 893.238 1538.66 895.183C1531.81 897.925 1526.16 899.47 1519.03 896.812C1512.99 892.922 1507.88 887.047 1505.6 880.125C1504.52 874.126 1504 868.116 1507.09 862.75C1512.34 859.811 1517.03 860.215 1522.77 861.629C1529.34 863.91 1534.67 867.739 1539.22 873C1540.47 875.754 1540.47 875.754 1541.22 878C1541.88 878 1542.54 878 1543.22 878C1543.44 876.804 1543.67 875.607 1543.9 874.375C1546.6 862.472 1551.58 851.82 1557.16 841.067C1558.24 838.962 1559.27 836.841 1560.3 834.711C1565.96 823.01 1565.96 823.01 1569.78 818.437C1572.09 815.595 1572.22 815.252 1572.22 811.312C1571.33 808.118 1571.33 808.118 1570.15 805.687C1568.13 799.878 1568.54 793.943 1570.78 788.25C1574.68 780.538 1579.5 776.735 1588.22 778Z" fill="#D9D9D9"/>
<path d="M1454.22 789C1457.15 790.687 1457.15 790.687 1459.22 794C1460.43 801.963 1459.55 809.157 1455.22 816C1453.09 818.562 1453.09 818.562 1451.22 820C1450.56 820 1449.9 820 1449.22 820C1449.54 820.46 1449.87 820.921 1450.2 821.395C1465.82 843.581 1479.71 866.924 1490.22 892C1491.04 893.836 1491.88 895.669 1492.72 897.5C1493.14 898.441 1493.57 899.382 1494.01 900.351C1494.73 901.934 1495.46 903.514 1496.2 905.086C1497.79 908.534 1498.56 911.195 1498.22 915C1496.03 915.5 1496.03 915.5 1493.22 915C1489.27 910.675 1487.29 904.971 1485.25 899.578C1483.84 896.07 1482.11 892.76 1480.38 889.402C1479.27 887.112 1478.37 884.835 1477.53 882.437C1476.63 878.926 1476.63 878.926 1474.22 878C1474.03 878.742 1473.84 879.485 1473.65 880.25C1471.69 884.003 1469.11 885.624 1465.22 887C1457.77 888.201 1451.36 886.208 1445.28 881.937C1442.62 879.444 1442.29 878.443 1441.72 874.812C1442.33 870.125 1443.72 868.587 1447.16 865.512C1453.14 861.116 1458.96 860.546 1466.22 861C1464.8 857.564 1463.44 854.376 1461.53 851.187C1460.22 849 1460.22 849 1460.22 847C1459.23 847.495 1459.23 847.495 1458.22 848C1456.67 848.051 1455.13 848.091 1453.59 848.125C1448.33 848.579 1445.92 850.393 1442.4 854.211C1436.68 858.902 1430.07 859.529 1422.9 859.437C1422.07 859.43 1421.24 859.422 1420.38 859.414C1408.49 859.098 1399.98 854.768 1391.65 846.437C1390.22 844 1390.22 844 1389.97 841.562C1392.27 836.843 1396.83 834.291 1401.34 831.847C1410.65 829.101 1424.45 829.321 1433.14 833.726C1433.82 834.147 1434.51 834.567 1435.22 835C1436.05 835.482 1436.88 835.964 1437.73 836.461C1441.99 839.101 1443.91 840.382 1446.22 845C1449.85 845 1453.48 845 1457.22 845C1454.38 838.978 1451.09 833.652 1447.22 828.25C1446.43 827.138 1446.43 827.138 1445.64 826.004C1441.93 820.525 1441.93 820.525 1437.22 816C1433.47 816.135 1431.17 817.57 1428.09 819.562C1419.67 823.906 1408.94 823.193 1399.86 821.301C1392.15 818.723 1383.45 814.185 1379.22 807C1378.53 804.562 1378.53 804.562 1379.22 802C1385.24 795.199 1392.02 793.338 1400.88 792.762C1414.12 792.513 1424.2 794.756 1434.22 804C1435.89 805.657 1437.56 807.322 1439.22 809C1439.29 808.059 1439.37 807.118 1439.44 806.148C1440.65 794.698 1440.65 794.698 1443.9 791.125C1447.84 788.599 1449.63 788.083 1454.22 789Z" fill="#D9D9D9"/>
<path d="M1610.13 910.84C1612.82 912.336 1614.38 913.491 1616.22 916C1616.59 918.964 1616.73 921.488 1616.65 924.437C1616.66 925.188 1616.67 925.939 1616.67 926.713C1616.62 931.232 1616.24 934.409 1613.22 938C1611.3 939.004 1611.3 939.004 1609.03 939.562C1608.14 939.789 1607.25 940.016 1606.34 940.25C1605.31 940.497 1604.28 940.745 1603.22 941C1602.01 941.33 1600.8 941.66 1599.56 942C1564.2 951.589 1523.81 950.669 1488.22 943C1487.31 942.808 1486.41 942.616 1485.48 942.419C1469.07 938.852 1469.07 938.852 1464.22 934C1463.69 930.92 1463.75 927.807 1463.72 924.687C1463.67 923.832 1463.63 922.977 1463.59 922.096C1463.51 915.916 1463.51 915.916 1465.5 913.328C1468.42 910.852 1471.51 908.951 1475.22 908C1478.03 908.375 1478.03 908.375 1480.22 909C1480.22 909.99 1480.22 910.98 1480.22 912C1478.24 912.66 1476.26 913.32 1474.22 914C1482.5 923.316 1504.42 923.08 1516.22 924C1519.7 924.138 1523.17 924.164 1526.66 924.168C1527.62 924.171 1528.59 924.175 1529.59 924.178C1531.62 924.183 1533.65 924.185 1535.69 924.185C1538.75 924.187 1541.8 924.206 1544.86 924.225C1556.47 924.258 1567.73 923.714 1579.22 922C1580.17 921.864 1581.12 921.727 1582.1 921.587C1584.35 921.251 1586.6 920.885 1588.84 920.5C1589.56 920.383 1590.29 920.265 1591.03 920.145C1595.54 919.386 1599.84 918.332 1604.22 917C1603.37 914.775 1603.37 914.775 1600.91 914C1594.51 911.874 1588.3 910.333 1581.61 909.395C1579.22 909 1579.22 909 1577.22 908C1577.22 907.34 1577.22 906.68 1577.22 906C1587.69 902.508 1600.29 906.961 1610.13 910.84Z" fill="#D9D9D9"/>
<path d="M1482.22 811C1491.59 813.232 1499.76 817.917 1505.22 826C1505.79 826.846 1506.37 827.691 1506.97 828.563C1508.84 833.705 1509.03 838.596 1508.22 844C1506.03 847.063 1506.03 847.063 1503.22 849C1502.47 849.578 1501.73 850.155 1500.97 850.75C1497.13 852.492 1493.38 852.737 1489.22 853C1489.6 853.967 1489.99 854.934 1490.39 855.93C1490.64 856.555 1490.89 857.18 1491.15 857.824C1491.7 859.206 1492.25 860.587 1492.81 861.967C1493.97 864.858 1495.12 867.748 1496.22 870.66C1499.97 880.507 1504.97 889.848 1509.96 899.113C1510.42 899.968 1510.87 900.823 1511.35 901.704C1512.25 903.375 1513.15 905.042 1514.07 906.705C1514.48 907.468 1514.89 908.23 1515.31 909.016C1515.68 909.689 1516.05 910.362 1516.42 911.056C1517.22 913 1517.22 913 1517.22 917C1514.9 917.223 1514.9 917.223 1512.22 917C1506.35 911.541 1503.31 902.276 1500 895.053C1499.09 893.066 1498.17 891.085 1497.25 889.104C1489.42 872.209 1489.42 872.209 1487.01 864.102C1485.29 857.575 1485.29 857.575 1481.29 852.395C1479.24 851.411 1479.24 851.411 1477.13 850.699C1471.33 848.582 1468.11 842.116 1465.22 837C1464.85 836.412 1464.48 835.825 1464.1 835.219C1462.81 831.983 1462.84 829.033 1462.78 825.563C1462.74 824.265 1462.7 822.967 1462.66 821.629C1463.35 817.141 1464.74 815.813 1468.22 813C1472.74 809.985 1476.91 810.456 1482.22 811Z" fill="#D9D9D9"/>
<path d="M1527.22 709C1530.41 710.526 1532.96 712.27 1535.22 715C1536.63 721.412 1534.95 727.05 1531.85 732.668C1528.49 737.471 1524.05 740.778 1519.22 744C1518.35 746.366 1518.35 746.366 1517.86 749.164C1517.55 750.724 1517.55 750.724 1517.22 752.316C1517.02 753.408 1516.81 754.5 1516.59 755.625C1516.27 757.228 1516.27 757.228 1515.94 758.863C1514.02 768.488 1513.06 777.699 1512.9 787.5C1512.88 788.576 1512.86 789.653 1512.84 790.761C1512.77 794.174 1512.71 797.587 1512.65 801C1512.61 803.324 1512.57 805.648 1512.52 807.973C1512.42 813.648 1512.31 819.324 1512.22 825C1511.56 825 1510.9 825 1510.22 825C1506.5 820.536 1505.63 816.93 1505.72 811.277C1505.72 810.543 1505.71 809.809 1505.71 809.053C1505.71 806.68 1505.74 804.31 1505.78 801.937C1505.79 801.129 1505.79 800.32 1505.8 799.487C1505.94 782.503 1507.6 766.38 1512.35 750.031C1514.07 744.973 1514.07 744.973 1513.44 739.895C1513.06 739.207 1512.67 738.52 1512.28 737.812C1509.26 731.504 1509.25 725.411 1511.28 718.75C1514.29 711.8 1519.51 707.715 1527.22 709Z" fill="#D9D9D9"/>
<path d="M1526.29 811.422C1535.14 812.835 1543.58 816.907 1549.07 824.16C1553.64 831.484 1554.06 838.702 1552.72 847.125C1552.55 847.744 1552.39 848.363 1552.22 849C1546.07 851.656 1539.42 852.074 1532.94 850.418C1527.05 847.943 1524.23 843.446 1521.22 838C1520.84 837.41 1520.47 836.819 1520.08 836.211C1518.79 832.903 1518.81 829.627 1518.78 826.125C1518.75 825.43 1518.71 824.735 1518.68 824.02C1518.64 820.144 1519.16 817.545 1521.49 814.508C1524.22 812 1524.22 812 1526.29 811.422Z" fill="#D9D9D9"/>
<path d="M1496.16 764.23C1500.27 767.254 1502.55 771.263 1504.22 776C1504.47 779 1504.47 779 1504.22 781C1497.29 784.322 1487.27 784.297 1479.9 782.062C1473.03 778.913 1466.62 772.696 1463.22 766C1462.9 762.812 1462.9 762.812 1463.22 760C1472.11 751.103 1487.61 758.812 1496.16 764.23Z" fill="#D9D9D9"/>
<path d="M1553.78 739.937C1556.22 742 1556.22 742 1557.22 743C1557.06 747.17 1556.69 749.415 1554.03 752.687C1546.75 758.676 1541.35 760.427 1532.02 760.351C1527.72 759.812 1524.26 758.092 1521.22 755C1520.33 753.043 1520.33 753.043 1520.22 751C1524.07 744.977 1531.45 740.488 1538.18 738.387C1543.49 737.377 1549.12 736.827 1553.78 739.937Z" fill="#D9D9D9"/>
<path d="M1491.65 721.938C1499.42 724.255 1503.47 729.118 1508.03 735.562C1509.87 740.898 1509.81 746.407 1509.22 752C1507.22 754 1507.22 754 1504.15 754.5C1497.77 753.69 1493.32 750.165 1488.9 745.625C1484.89 739.387 1482.1 734.586 1483.22 727C1485.81 723.156 1486.97 722.023 1491.65 721.938Z" fill="#D9D9D9"/>
<path d="M1539.22 896C1541.53 896 1543.84 896 1546.22 896C1546.22 898.31 1546.22 900.62 1546.22 903C1547.08 902.227 1547.08 902.227 1547.97 901.438C1550.22 900 1550.22 900 1552.47 900.312C1553.04 900.539 1553.62 900.766 1554.22 901C1554.22 902.32 1554.22 903.64 1554.22 905C1551.58 905 1548.94 905 1546.22 905C1546.01 905.927 1545.81 906.854 1545.59 907.809C1545.33 909.006 1545.06 910.204 1544.78 911.438C1544.51 912.632 1544.24 913.827 1543.97 915.059C1543.22 918 1543.22 918 1542.22 919C1540.55 919.041 1538.88 919.043 1537.22 919C1537.16 916.479 1537.12 913.959 1537.09 911.438C1537.07 910.733 1537.06 910.029 1537.04 909.303C1537 904.481 1537.69 900.577 1539.22 896Z" fill="#D9D9D9"/>
<path d="M789.095 683.977C791.988 685.373 792.421 687.292 793.448 690.219C793.797 691.286 793.797 691.286 794.153 692.375C794.66 693.838 795.171 695.301 795.685 696.762C795.937 697.483 796.19 698.204 796.45 698.947C797.832 702.652 799.622 706.157 801.431 709.668C802.381 712.491 802.024 714.172 801.216 717C799.337 716.77 799.337 716.77 797.216 716C796.126 714.137 796.126 714.137 795.278 711.688C793.838 707.703 792.288 703.821 790.591 699.938C788.515 694.978 787.086 690.307 786.216 685C787.216 684 787.216 684 789.095 683.977Z" fill="#D9D9D9"/>
<path d="M1399.22 971C1404.17 971 1409.12 971 1414.22 971C1414.55 972.65 1414.88 974.3 1415.22 976C1413.22 978 1413.22 978 1409.96 978.195C1408.68 978.172 1407.41 978.149 1406.09 978.125C1404.17 978.098 1404.17 978.098 1402.21 978.07C1400.73 978.036 1400.73 978.036 1399.22 978C1399.22 975.69 1399.22 973.38 1399.22 971Z" fill="#D9D9D9"/>
<path d="M687.653 885.812C690.215 886 690.215 886 692.215 888C692.465 890.5 692.465 890.5 692.215 893C690.215 895 690.215 895 687.715 895.312C686.478 895.158 686.478 895.158 685.215 895C683.215 892 683.215 892 683.528 889.375C684.489 886.056 684.489 886.056 687.653 885.812Z" fill="#D9D9D9"/>
<path d="M901.216 914C901.345 920.742 901.014 927.304 900.216 934C899.272 934.364 899.272 934.364 898.31 934.734C894.142 936.366 889.978 938.021 885.903 939.875C885.012 940.273 885.012 940.273 884.103 940.68C880.625 943.114 877.654 945.763 876.821 950.016C876.681 952.987 876.755 955.927 876.855 958.898C876.845 961.102 876.845 961.102 876.216 965C873.329 967.258 873.329 967.258 870.216 969C868.711 971.061 868.711 971.061 867.841 973.25C867.365 974.31 867.365 974.31 866.88 975.391C866.661 975.922 866.442 976.453 866.216 977C837.186 977.647 837.186 977.647 830.216 973C829.818 970.433 829.61 968.081 829.521 965.5C829.464 964.375 829.464 964.375 829.406 963.226C829.287 960.818 829.189 958.409 829.091 956C828.982 953.625 828.87 951.251 828.756 948.876C828.683 947.34 828.611 945.803 828.541 944.266C828.318 939.503 827.939 934.784 827.412 930.044C827.118 926.984 827.121 923.946 827.153 920.875C827.162 919.759 827.171 918.642 827.181 917.492C827.192 916.67 827.204 915.847 827.216 915C828.288 915.144 829.361 915.289 830.466 915.438C841.012 916.735 851.468 917.182 862.091 917.188C863.98 917.206 863.98 917.206 865.907 917.225C875.595 917.24 884.845 916.143 894.368 914.434C897.216 914 897.216 914 901.216 914Z" fill="#D9D9D9"/>
<path d="M877.216 871C881.305 871.241 883.779 871.709 887.216 874C889.647 877.647 889.604 879.156 888.864 883.348C883.362 905.854 883.362 905.854 879.216 910C876.545 910.141 873.891 910.042 871.216 910C871.66 901.422 872.24 892.861 873.091 884.312C873.157 883.559 873.223 882.806 873.292 882.03C873.754 877.65 874.63 874.583 877.216 871Z" fill="#D9D9D9"/>
<path d="M828.653 874.688C835.855 878.376 839.339 887.766 842.591 894.75C843.04 895.682 843.49 896.614 843.954 897.574C847.216 904.484 847.216 904.484 847.216 909C844.058 909.592 841.366 909.69 838.216 909C834.93 906.493 832.685 903.288 830.216 900C829.302 898.913 828.382 897.832 827.458 896.754C826.521 895.629 825.586 894.503 824.653 893.375C824.199 892.849 823.744 892.324 823.276 891.782C820.853 888.741 820.211 887.223 820.298 883.289C821.578 878.701 823.656 875.328 828.653 874.688Z" fill="#D9D9D9"/>
<path d="M862.215 873C864.215 875 864.215 875 864.442 878.44C864.442 879.911 864.431 881.381 864.411 882.852C864.408 883.626 864.405 884.4 864.402 885.197C864.391 887.673 864.366 890.149 864.34 892.625C864.33 894.302 864.321 895.979 864.313 897.656C864.291 901.771 864.256 905.886 864.215 910C861.245 910 858.275 910 855.215 910C853.224 903.3 851.878 896.954 851.215 890C850.885 889.34 850.555 888.68 850.215 888C849.148 878.391 849.148 878.391 852.278 874.313C855.857 872.713 858.335 872.561 862.215 873Z" fill="#D9D9D9"/>
<path d="M891.216 901C893.38 901.023 893.38 901.023 895.841 901.375C897.067 901.541 897.067 901.541 898.317 901.711C898.944 901.806 899.57 901.902 900.216 902C900.216 903.32 900.216 904.64 900.216 906C896.096 907.292 892.548 908.263 888.216 908C888.966 903.25 888.966 903.25 891.216 901Z" fill="#D9D9D9"/>
<path d="M802.216 1058C802.216 1058.66 802.216 1059.32 802.216 1060C823.996 1060.5 823.996 1060.5 846.216 1061C846.216 1061.33 846.216 1061.66 846.216 1062C829.056 1062 811.896 1062 794.216 1062C799.549 1058 799.549 1058 802.216 1058Z" fill="#D9D9D9"/>
<path d="M1143.22 724C1143.88 724.33 1144.54 724.66 1145.22 725C1142.25 727.97 1139.28 730.94 1136.22 734C1136.22 730.044 1137.62 728.891 1140.22 726C1141.21 725.34 1142.2 724.68 1143.22 724Z" fill="#D9D9D9"/>
<path d="M585.403 848.875C587.291 848.937 587.291 848.937 589.216 849C589.216 849.33 589.216 849.66 589.216 850C588.164 850.082 587.112 850.165 586.028 850.25C581.945 851.053 580.204 852.193 577.216 855C577.528 853.125 577.528 853.125 578.216 851C581.305 848.941 581.925 848.761 585.403 848.875Z" fill="#D9D9D9"/>
<path d="M828.403 875.375C829.301 875.684 829.301 875.684 830.216 876C829.102 876.65 829.102 876.65 827.966 877.313C825.597 878.766 823.407 880.296 821.216 882C823.755 874.578 823.755 874.578 828.403 875.375Z" fill="#D9D9D9"/>
<path d="M1121.56 1013.83C1124.98 1013.83 1128.4 1013.83 1131.83 1013.83C1143.8 1013.82 1155.77 1013.81 1167.74 1013.81C1178.85 1013.82 1189.97 1013.8 1201.09 1013.79C1210.68 1013.78 1220.28 1013.77 1229.88 1013.77C1235.59 1013.77 1241.3 1013.77 1247.01 1013.76C1252.36 1013.75 1257.72 1013.75 1263.08 1013.76C1265.04 1013.76 1266.99 1013.75 1268.95 1013.75C1286.1 1013.7 1303.3 1013.87 1316.6 1026.25C1319.85 1029.76 1321.75 1032.91 1323.34 1037.44C1323.67 1038.36 1324.01 1039.29 1324.35 1040.25C1325.89 1045.14 1326.34 1049.55 1326.35 1054.69C1326.35 1055.66 1326.35 1055.66 1326.35 1056.66C1326.36 1058.8 1326.35 1060.94 1326.35 1063.07C1326.35 1064.56 1326.35 1066.05 1326.35 1067.54C1326.35 1070.66 1326.35 1073.78 1326.35 1076.89C1326.34 1080.89 1326.34 1084.89 1326.35 1088.89C1326.35 1091.96 1326.35 1095.04 1326.35 1098.11C1326.35 1099.58 1326.35 1101.06 1326.35 1102.53C1326.35 1104.59 1326.35 1106.65 1326.35 1108.7C1326.34 1110.46 1326.34 1110.46 1326.34 1112.25C1326.22 1115 1326.22 1115 1325.22 1117C1321.59 1117 1317.96 1117 1314.22 1117C1314.23 1115.19 1314.25 1113.38 1314.26 1111.51C1314.31 1105.48 1314.35 1099.45 1314.37 1093.42C1314.39 1089.77 1314.41 1086.12 1314.44 1082.47C1314.48 1078.94 1314.49 1075.4 1314.5 1071.87C1314.51 1069.89 1314.53 1067.91 1314.56 1065.93C1314.56 1054.15 1313.56 1042.02 1305.22 1033C1293.52 1023.14 1276.52 1024.85 1262.18 1024.87C1260.59 1024.87 1259 1024.87 1257.41 1024.87C1253.1 1024.86 1248.8 1024.86 1244.49 1024.87C1239.93 1024.87 1235.36 1024.87 1230.8 1024.86C1223.1 1024.86 1215.41 1024.86 1207.71 1024.87C1199.9 1024.87 1192.09 1024.87 1184.29 1024.87C1133.1 1024.78 1133.1 1024.78 1081.92 1025.38C1081.05 1025.4 1080.17 1025.41 1079.27 1025.43C1070.61 1025.59 1062.04 1026 1053.43 1026.93C1052.7 1027.01 1051.96 1027.09 1051.21 1027.17C1041.84 1028.26 1033.6 1030.8 1027.22 1038C1020.06 1047.74 1019.77 1060.3 1019.92 1071.96C1019.93 1073.23 1019.93 1074.49 1019.94 1075.8C1019.95 1079.13 1019.98 1082.45 1020.01 1085.78C1020.04 1089.19 1020.05 1092.6 1020.07 1096.02C1020.1 1102.68 1020.15 1109.34 1020.22 1116C1018.24 1116.03 1016.26 1116.05 1014.28 1116.06C1013.18 1116.07 1012.07 1116.09 1010.94 1116.1C1008.22 1116 1008.22 1116 1007.22 1115C1007.1 1113.1 1007.06 1111.2 1007.04 1109.29C1007.03 1108.07 1007.01 1106.85 1007 1105.59C1006.99 1104.24 1006.98 1102.89 1006.98 1101.54C1006.97 1100.52 1006.97 1100.52 1006.97 1099.48C1006.94 1095.88 1006.93 1092.27 1006.92 1088.67C1006.91 1084.97 1006.88 1081.27 1006.84 1077.58C1006.81 1074.71 1006.8 1071.85 1006.8 1068.99C1006.79 1066.97 1006.76 1064.96 1006.74 1062.94C1006.77 1048.78 1010.91 1037.83 1020.34 1027.31C1043.48 1005.58 1092.43 1013.84 1121.56 1013.83Z" fill="#D9D9D9"/>
</g>
<defs>
<clipPath id="clip0_50_2308">
<rect width="1728" height="1117" fill="white"/>
</clipPath>
</defs>
</svg>
